<?xml version="1.0" standalone="no"?>
<!DOCTYPE svg PUBLIC "-//W3C//DTD SVG 20010904//EN"
 "http://www.w3.org/TR/2001/REC-SVG-20010904/DTD/svg10.dtd">
<svg version="1.0" xmlns="http://www.w3.org/2000/svg"
 width="272.000000pt" height="258.000000pt" viewBox="0 0 272.000000 258.000000"
 preserveAspectRatio="xMidYMid meet">
<metadata>
Created by potrace 1.16, written by Peter Selinger 2001-2019
</metadata>
<g transform="translate(0.000000,258.000000) scale(0.100000,-0.100000)"
fill="#000000" stroke="none">
<path d="M1120 2484 c-19 -2 -78 -9 -130 -15 -256 -29 -620 -129 -794 -216
l-49 -25 7 -161 c32 -769 271 -1318 756 -1735 158 -137 382 -267 460 -267 40
0 177 63 268 122 155 101 345 277 474 439 223 281 375 650 440 1069 12 81 22
207 25 336 l6 205 -74 32 c-220 94 -462 160 -729 198 -100 15 -577 28 -660 18z
m685 -62 c232 -36 518 -115 681 -187 l57 -25 -6 -198 c-7 -226 -35 -421 -91
-622 -104 -378 -270 -665 -536 -930 -155 -154 -320 -272 -471 -335 -73 -31
-84 -29 -230 47 -295 153 -599 476 -765 813 -104 214 -176 445 -215 696 -22
147 -40 412 -31 485 5 45 6 47 61 71 187 83 516 168 768 198 176 21 607 14
778 -13z"/>
<path d="M1130 2410 c-286 -26 -567 -93 -844 -201 l-59 -23 6 -165 c8 -195 18
-289 53 -465 63 -315 190 -610 363 -844 89 -120 271 -303 390 -393 111 -83
290 -179 334 -179 37 0 199 85 298 156 106 76 253 215 348 329 307 369 475
860 484 1420 l2 140 -37 17 c-141 67 -461 154 -693 188 -160 23 -493 34 -645
20z m220 -123 l0 -34 -117 -7 c-64 -3 -133 -9 -155 -12 l-38 -7 0 -129 0 -130
38 6 c20 3 76 8 125 12 l87 6 0 -35 0 -35 -67 -6 c-120 -11 -184 -21 -183 -28
0 -5 0 -69 0 -144 l0 -136 103 6 c56 4 125 8 152 9 l50 2 0 -35 0 -35 -120 -7
c-66 -4 -155 -12 -198 -18 -42 -6 -82 -8 -87 -5 -12 7 -14 734 -2 752 7 11 79
24 202 36 19 2 74 5 123 5 l87 2 0 -33z m315 23 c50 -5 120 -15 158 -21 l67
-11 0 -35 0 -36 -47 6 c-27 3 -69 9 -95 13 l-48 7 0 -347 0 -346 -43 0 c-24 0
-48 5 -55 12 -9 9 -12 100 -12 350 l0 337 -32 6 c-18 3 -60 6 -93 8 -60 2 -60
2 -63 35 l-3 32 88 0 c48 0 129 -5 178 -10z m-815 -424 l0 -384 -50 -11 c-90
-19 -77 -36 -189 243 -55 140 -101 260 -101 265 0 6 -4 11 -10 11 -6 0 -10
-107 -10 -301 l0 -300 -35 -15 c-19 -7 -39 -14 -45 -14 -7 0 -10 126 -10 383
l0 382 60 22 60 22 14 -22 c7 -12 57 -136 112 -274 54 -139 103 -253 107 -253
5 0 5 137 1 304 l-7 305 29 6 c16 4 34 8 39 10 35 12 35 12 35 -379z m1367
313 c92 -47 122 -87 136 -182 14 -97 5 -112 -52 -90 l-38 15 -6 71 c-4 65 -7
73 -39 103 -46 42 -130 62 -164 39 -20 -13 -24 -24 -24 -63 0 -62 15 -84 159
-237 159 -168 176 -197 176 -297 0 -70 -2 -80 -26 -103 -35 -35 -89 -41 -181
-21 -90 20 -182 70 -222 120 -29 35 -31 45 -34 127 -4 88 -4 89 20 88 67 -3
73 -9 78 -92 5 -67 10 -80 35 -107 34 -36 120 -70 176 -70 33 0 41 4 49 26 32
82 0 141 -159 302 -148 147 -171 185 -171 271 0 112 34 144 147 138 58 -3 86
-11 140 -38z m-672 -791 c212 -70 368 -260 326 -399 -6 -21 -15 -41 -20 -44
-5 -2 -31 41 -59 98 -91 185 -203 289 -382 354 l-65 23 70 -6 c39 -3 97 -15
130 -26z m-140 -18 c86 -30 141 -65 215 -139 72 -72 127 -156 166 -252 19 -45
22 -65 14 -73 -16 -16 -148 -11 -198 7 -38 14 -44 15 -49 2 -3 -9 0 -22 7 -30
17 -21 116 -38 191 -33 l67 5 6 -30 c13 -63 8 -77 -31 -94 -21 -9 -74 -26
-118 -38 -58 -16 -81 -27 -83 -40 -4 -15 1 -17 35 -11 21 4 71 18 111 32 40
13 77 24 82 24 13 0 0 -72 -16 -91 -25 -28 -406 -216 -465 -229 -84 -19 -204
-9 -264 21 -65 32 -163 131 -202 205 -31 58 -69 171 -61 180 3 2 24 -14 49
-37 51 -47 138 -91 225 -113 78 -20 84 -20 84 3 0 15 -15 24 -72 40 -150 44
-243 92 -281 143 -19 25 -19 33 -9 108 6 44 24 111 40 148 l27 67 58 3 c43 2
78 -4 144 -27 48 -17 89 -28 91 -26 24 24 -108 84 -201 93 l-58 5 48 49 c59
60 130 108 203 137 66 26 153 23 245 -9z m385 -818 c0 -17 -62 -102 -93 -128
-77 -65 -203 -104 -332 -103 -123 1 -162 13 -75 23 36 4 90 14 120 23 60 16
257 116 323 162 44 31 57 37 57 23z"/>
<path d="M1222 1272 c-9 -6 -12 -93 -10 -398 l3 -389 98 -3 c117 -3 163 8 202
48 30 31 30 33 33 162 4 138 -4 177 -41 203 -20 14 -20 16 -4 50 13 26 17 62
17 138 0 163 -24 188 -182 194 -57 2 -109 0 -116 -5z m193 -92 c11 -9 15 -34
15 -101 0 -109 -14 -129 -85 -129 l-45 0 0 118 c0 65 3 122 8 126 10 11 89 1
107 -14z m23 -345 c20 -23 22 -37 22 -129 0 -132 -6 -141 -92 -141 l-63 0 -3
140 c-1 76 0 145 3 153 9 25 105 8 133 -23z"/>
</g>
</svg>
